PathFileType	4	(X/Y/Z)	C:/Users/opensim2020/Desktop/walking_exp_matlab/subject02_walking12_straight_03.trc																																																																																																																												
DataRate	CameraRate	NumFrames	NumMarkers	Units	OrigDataRate	OrigDataStartFrame	OrigNumFrames																																																																																																																								
100	100	7	42	mm	100	1557	127																																																																																																																								
Frame#	Time	LFHD			RFHD			LBHD			RBHD			C7			T10			CLAV			STRN			RBAK			LSHO			LUPA			LELB			LFRM			LWRA			LWRB			LFIN			RSHO			RUPA			RELB			RFRM			RWRA			RWRB			RFIN			LASI			RASI			LPSI			RPSI			LTHI			LKNE			LTIB			LANK			LHEE			LTOE			RTHI			RKNE			RTIB			RANK			RHEE			RTOE			*39			*40			*41		
		X1	Y1	Z1	X2	Y2	Z2	X3	Y3	Z3	X4	Y4	Z4	X5	Y5	Z5	X6	Y6	Z6	X7	Y7	Z7	X8	Y8	Z8	X9	Y9	Z9	X10	Y10	Z10	X11	Y11	Z11	X12	Y12	Z12	X13	Y13	Z13	X14	Y14	Z14	X15	Y15	Z15	X16	Y16	Z16	X17	Y17	Z17	X18	Y18	Z18	X19	Y19	Z19	X20	Y20	Z20	X21	Y21	Z21	X22	Y22	Z22	X23	Y23	Z23	X24	Y24	Z24	X25	Y25	Z25	X26	Y26	Z26	X27	Y27	Z27	X28	Y28	Z28	X29	Y29	Z29	X30	Y30	Z30	X31	Y31	Z31	X32	Y32	Z32	X33	Y33	Z33	X34	Y34	Z34	X35	Y35	Z35	X36	Y36	Z36	X37	Y37	Z37	X38	Y38	Z38	X39	Y39	Z39	X40	Y40	Z40	X41	Y41	Z41	X42	Y42	Z42
																																																																																																																															
32	0.31	-180.43448	1747.82446	-1078.97473	-214.04695	1723.37976	-940.77765	-303.26764	1670.55701	-1120.89404	-348.91309	1644.54688	-987.76056	-370.24612	1526.80469	-1056.21106	-420.76389	1250.83032	-1060.98474	-229.3484	1460.86353	-1054.78186	-176.21675	1289.31384	-1043.48706	-433.54807	1350.60571	-1001.87909	-283.97211	1506.56604	-1228.11646	-272.55771	1314.96436	-1331.5022	-252.46385	1178.9989	-1364.02856	-216.15523	1054.48816	-1391.43628	-140.08536	939.86865	-1369.62927	-182.8826	937.02985	-1406.93872	-148.2948	882.56738	-1418.98682	-311.02332	1489.88062	-864.2652	-340.0784	1297.34924	-785.88757	-321.67685	1151.61584	-768.56238	-289.94617	1035.79797	-748.159	-235.2986	910.89301	-765.33191	-283.54922	905.90033	-734.41455	-245.24731	843.78009	-731.6358	-177.52135	996.99487	-1177.92542	-202.96205	978.61804	-924.10522	-394.43604	1036.71582	-1117.74304	-410.39346	1030.52661	-1003.79053	-241.67575	682.45026	-1238.64246	-279.57303	480.31445	-1214.77246	-341.47388	294.36807	-1222.39856	-346.04031	70.41418	-1187.54321	-386.38895	42.4433	-1140.33777	-189.0639	33.17403	-1189.703	-221.72652	674.35327	-853.93768	-171.02045	482.47479	-873.44598	-293.84912	348.17191	-894.12042	-399.6283	193.998	-948.22162	-439.12967	156.67645	-1017.03088	-313.04568	72.42046	-898.20728	-302.83105	1807.0658	-1013.27472	NaN	NaN	NaN	NaN	NaN	NaN
33	0.32	-168.26593	1747.61743	-1078.42188	-202.27036	1722.72119	-940.27332	-291.28027	1670.84058	-1121.495	-336.16913	1644.42334	-987.38068	-358.53043	1526.72778	-1056.53479	-409.5889	1250.88379	-1061.71875	-217.83353	1460.61938	-1055.14185	-165.04741	1288.93958	-1044.57239	-423.12964	1351.02087	-1002.79651	-272.28818	1506.95801	-1228.27466	-257.50424	1316.51514	-1332.68945	-233.59155	1181.41272	-1366.78979	-192.30363	1058.40613	-1394.47144	-111.42684	946.99634	-1372.34729	-154.30031	942.18109	-1409.32837	-117.46057	889.15326	-1421.28857	-299.28104	1488.94324	-864.47009	-331.73718	1296.60059	-786.71124	-315.09439	1151.23389	-769.21558	-285.8302	1034.81372	-748.13306	-234.61279	907.98248	-764.55756	-282.94864	904.86066	-733.54742	-246.39636	841.56366	-730.31287	-168.32294	996.4566	-1179.93591	-190.88104	978.96814	-926.45197	-384.4772	1036.46387	-1117.08252	-399.47635	1030.91309	-1002.81415	-236.09218	681.75049	-1238.96448	-276.49097	480.0351	-1215.11597	-339.2099	294.46744	-1222.71631	-345.89017	70.35641	-1187.35046	-385.9704	42.05861	-1140.03137	-188.98814	33.11217	-1189.78516	-205.84113	676.13324	-853.59399	-151.57664	484.5369	-874.38153	-268.1575	343.81775	-894.36383	-366.19028	184.34169	-948.49542	-404.20959	144.97377	-1017.07788	-272.54971	68.4826	-898.71118	-290.55142	1806.74121	-1012.72302	NaN	NaN	NaN	NaN	NaN	NaN
34	0.33	-156.08441	1747.14868	-1077.7063	-190.45094	1721.85315	-939.69427	-278.9527	1670.59119	-1120.77979	-324.75546	1644.03333	-987.70209	-346.77975	1526.53101	-1056.79285	-398.35062	1250.79761	-1062.16333	-206.27493	1460.15076	-1055.453	-153.88971	1288.29102	-1045.51221	-411.78262	1350.85205	-1003.55402	-260.51175	1507.27161	-1228.37402	-242.43291	1318.06274	-1333.86841	-214.95599	1183.677	-1368.96851	-168.71008	1061.97693	-1396.47314	-83.09746	954.21381	-1374.87341	-125.90874	947.53229	-1411.37708	-87.0307	896.15564	-1423.4707	-287.78824	1488.05908	-864.67566	-322.33279	1296.12524	-787.31635	-308.33179	1150.60059	-769.76624	-282.07281	1033.79333	-747.87518	-233.71121	905.69489	-763.38458	-282.20206	903.74231	-732.60596	-247.25204	839.49451	-729.15485	-159.20435	995.51843	-1181.84814	-178.96956	978.95636	-928.67059	-374.55673	1036.09888	-1116.35913	-388.43417	1031.17542	-1001.77545	-230.30304	680.87689	-1239.37598	-273.2345	479.69489	-1215.2467	-336.88773	294.40344	-1222.80969	-345.6525	70.67162	-1187.22815	-385.8569	42.32911	-1139.79773	-188.64923	33.22811	-1189.81042	-190.16624	677.87189	-853.32727	-132.97203	486.0863	-875.24945	-242.332	339.03564	-894.27802	-331.81479	174.30441	-948.28625	-368.03235	132.54831	-1016.66486	-231.1581	64.86462	-898.77423	-278.40082	1806.24744	-1012.05402	NaN	NaN	NaN	NaN	NaN	NaN
35	0.34	-143.89621	1746.53186	-1076.86401	-178.65572	1720.88098	-938.97705	-266.92142	1670.5188	-1121.12488	-312.6329	1643.1001	-987.24432	-334.98752	1526.12878	-1057.10132	-387.16177	1250.52869	-1062.47668	-194.67528	1459.49597	-1055.58789	-142.65802	1287.45935	-1046.40088	-399.99173	1350.47717	-1004.10901	-248.61177	1507.33789	-1228.45923	-227.5206	1319.40283	-1334.91833	-196.26694	1185.90564	-1371.37976	-145.38263	1065.99121	-1398.54419	-54.99308	962.18793	-1377.25427	-98.02071	953.2135	-1413.06226	-57.20576	903.20355	-1424.89856	-276.64297	1486.87109	-864.87	-313.39264	1295.34717	-788.20685	-301.793	1150.01941	-770.18439	-277.91684	1032.54565	-747.44757	-232.2204	903.7868	-762.01392	-281.08438	902.87921	-731.63867	-248.13197	837.53363	-727.79565	-149.78352	994.31543	-1183.69299	-167.58478	978.47949	-931.05597	-364.5426	1035.64783	-1115.58472	-377.23468	1031.20569	-1000.81824	-224.59676	680.26978	-1239.47681	-269.82596	479.25601	-1215.15796	-334.94836	294.6839	-1222.78894	-345.44119	70.82444	-1187.03784	-385.96716	42.83793	-1139.56213	-188.55193	33.16235	-1189.91089	-174.74651	679.3938	-853.17053	-115.10838	487.57214	-875.90784	-216.51007	333.87201	-894.4024	-296.89133	164.24992	-947.5434	-331.15549	119.92661	-1015.6604	-189.31465	61.62452	-898.37506	-266.26108	1805.66003	-1011.21027	NaN	NaN	NaN	NaN	NaN	NaN
36	0.35	-131.6349	1745.79761	-1075.98242	-166.60193	1719.69043	-938.28534	-254.56354	1669.91333	-1120.1488	-301.32251	1642.4303	-987.20526	-323.15967	1525.56738	-1056.99182	-375.94742	1250.10815	-1062.52234	-183.09607	1458.65833	-1055.63574	-131.3257	1286.48328	-1047.18921	-388.12549	1349.63257	-1004.68097	-236.65071	1507.27405	-1228.28442	-212.66386	1320.57446	-1335.6969	-177.85118	1188.0116	-1373.27283	-122.30447	1069.94031	-1400.25244	-27.83638	970.18152	-1378.8866	-70.76467	959.08881	-1414.23914	-27.78449	910.6781	-1426.08911	-265.17883	1485.40088	-864.87817	-305.85281	1294.302	-788.88287	-294.62939	1148.96521	-770.47052	-273.61948	1031.54187	-747.10352	-230.39001	901.63165	-760.26227	-280.03812	901.80597	-730.73553	-248.87038	835.7088	-726.54016	-141.06396	992.60236	-1185.6095	-155.57944	977.83496	-932.75317	-354.42978	1035.00415	-1114.80188	-366.01859	1031.09424	-999.85242	-218.65187	679.34924	-1239.5498	-266.23715	478.86642	-1215.04016	-333.18329	294.992	-1222.46204	-345.21289	71.02287	-1186.78577	-386.04132	43.41599	-1139.39832	-188.46556	33.09443	-1190.00806	-159.53357	680.6875	-853.08936	-97.30721	488.35983	-876.99829	-190.7231	328.48697	-894.1991	-261.23502	154.18556	-946.3089	-292.38184	107.43937	-1014.04108	-147.15523	58.92012	-897.4928	-254.11855	1804.94983	-1010.60284	NaN	NaN	NaN	NaN	NaN	NaN
37	0.36	-119.28973	1744.84595	-1075.0282	-154.85887	1718.32141	-937.42523	-242.27834	1669.34216	-1119.74719	-288.91635	1641.60864	-986.98438	-311.08789	1524.77759	-1057.11316	-364.72937	1249.54529	-1062.44727	-171.38188	1457.59631	-1055.55151	-119.99072	1285.25525	-1047.85132	-376.80267	1348.99048	-1005.04761	-224.63611	1507.02698	-1228.08533	-197.77484	1321.69348	-1336.4292	-159.61342	1190.09351	-1374.79431	-99.56488	1073.99023	-1401.97314	-1.54431	977.87347	-1379.57397	-43.79346	965.1474	-1415.22253	1.10741	918.6355	-1427.10474	-253.82863	1483.78223	-864.97211	-296.01282	1293.29333	-789.4234	-287.89026	1148.1167	-770.59729	-269.63895	1030.51343	-746.64484	-228.96024	899.37189	-759.06915	-278.46777	901.01288	-729.64722	-248.55112	834.26782	-724.93658	-131.63724	990.75592	-1187.245	-143.52	977.12122	-934.01807	-344.19717	1034.1792	-1114.01025	-354.75162	1030.74304	-998.9776	-212.55095	678.26178	-1239.60876	-262.48575	478.43515	-1214.75195	-331.62262	295.37225	-1221.95654	-345.01913	71.28609	-1186.47876	-385.92041	43.78366	-1139.09814	-188.42824	32.8792	-1190.02991	-144.59521	681.83942	-853.00226	-80.77985	488.8342	-877.95813	-164.97151	322.91238	-893.79523	-225.09332	144.38368	-944.43884	-254.2256	95.57114	-1011.84271	-104.67265	56.96326	-896.13281	-241.95364	1804.1405	-1009.79968	NaN	NaN	NaN	NaN	NaN	NaN
38	0.37	-107.04527	1743.66919	-1073.8645	-142.88564	1716.87231	-936.47791	-229.98125	1668.57324	-1119.09363	-277.43744	1640.78271	-986.96393	-299.31622	1523.97437	-1056.828	-353.31772	1248.84509	-1062.18176	-159.65845	1456.39771	-1055.39429	-108.61292	1283.89844	-1048.36426	-365.42209	1348.19531	-1005.28589	-212.64165	1506.50171	-1227.78589	-183.10638	1322.4104	-1336.85413	-141.38953	1192.073	-1376.36292	-77.13512	1078.07312	-1402.79993	24.60759	986.17212	-1380.7572	-17.43427	971.22101	-1415.64392	29.33777	926.57129	-1427.59106	-242.09204	1482.2179	-864.7475	-287.69342	1292.40894	-790.08667	-281.50443	1147.15784	-770.61218	-265.10376	1029.36548	-745.90656	-227.04147	897.55261	-758.18201	-276.44772	900.3269	-728.60529	-248.34235	832.60931	-723.68506	-122.16316	988.7326	-1188.70862	-131.5321	976.18164	-934.93042	-333.78171	1033.17505	-1113.16187	-343.46674	1030.04028	-998.12506	-206.31406	677.26154	-1239.44067	-258.62146	477.92432	-1214.2666	-330.01398	295.77148	-1221.21399	-344.79703	71.537	-1186.09534	-385.67365	44.07938	-1138.65662	-188.24591	32.86886	-1190.23401	-130.33205	682.29413	-853.17847	-64.50195	488.59491	-879.07465	-139.25865	317.24197	-893.14014	-188.16241	134.77094	-941.96228	-214.7468	83.99208	-1008.45789	-62.09646	55.81691	-894.37494	-229.57861	1802.91162	-1008.69562	2846.10059	1034.20068	-3356.85278	NaN	NaN	NaN
